# xmcd
#
# Track frame offsets:
#	150
#	19698
#	33741
#	49493
#	64122
#
# Disc length: 1044 seconds
#
# Revision: 0
# Processed by: cddbd v1.4PL0 Copyright (c) Steve Scherf et al.
# Submitted via: dBpowerAMP V4.0
#
DISCID=42041205
DTITLE=Pavlos Paounis - Komatia exo ginei
DYEAR=2003
DGENRE=Ethnic
TTITLE0=Epitelous
TTITLE1=Monima
TTITLE2=Komatia Exo Ginei
TTITLE3=Den Yparxei Logos
TTITLE4=en Ksero Ti Kano
EXTD=Pavlos Paounis - Komatia exo ginei
EXTT0=
EXTT1=
EXTT2=
EXTT3=
EXTT4=
PLAYORDER=
